<svg width="1287" height="630" viewBox="0 0 1287 630" fill="none" xmlns="http://www.w3.org/2000/svg">
<path d="M1180.79 306.452H930.899C929.574 306.451 928.303 305.923 927.365 304.986C926.428 304.049 925.901 302.778 925.899 301.452V254.352H927.899V301.452C927.9 302.248 928.216 303.01 928.779 303.573C929.341 304.135 930.104 304.451 930.899 304.452H1180.79C1181.59 304.451 1182.35 304.135 1182.91 303.573C1183.47 303.01 1183.79 302.248 1183.79 301.452V254.023H1185.79V301.452C1185.79 302.778 1185.26 304.049 1184.33 304.986C1183.39 305.923 1182.12 306.451 1180.79 306.452V306.452Z" fill="#3F3D56"/>
<path d="M1271.38 253.352H684.159V255.352H1271.38V253.352Z" fill="#3F3D56"/>
<path d="M684.202 271.398C693.702 271.398 701.404 263.696 701.404 254.196C701.404 244.696 693.702 236.994 684.202 236.994C674.702 236.994 667 244.696 667 254.196C667 263.696 674.702 271.398 684.202 271.398Z" fill="#3472B9"/>
<path d="M859.007 271.398C868.508 271.398 876.209 263.696 876.209 254.196C876.209 244.696 868.508 236.994 859.007 236.994C849.507 236.994 841.805 244.696 841.805 254.196C841.805 263.696 849.507 271.398 859.007 271.398Z" fill="#3472B9"/>
<path d="M977.639 321.959C987.139 321.959 994.841 314.257 994.841 304.757C994.841 295.257 987.139 287.555 977.639 287.555C968.139 287.555 960.437 295.257 960.437 304.757C960.437 314.257 968.139 321.959 977.639 321.959Z" fill="#3F3D56"/>
<path d="M1067.83 321.959C1077.33 321.959 1085.03 314.257 1085.03 304.757C1085.03 295.257 1077.33 287.555 1067.83 287.555C1058.33 287.555 1050.62 295.257 1050.62 304.757C1050.62 314.257 1058.33 321.959 1067.83 321.959Z" fill="#CCCCCC"/>
<path d="M1024.12 271.398C1033.62 271.398 1041.32 263.696 1041.32 254.196C1041.32 244.696 1033.62 236.994 1024.12 236.994C1014.62 236.994 1006.92 244.696 1006.92 254.196C1006.92 263.696 1014.62 271.398 1024.12 271.398Z" fill="#3472B9"/>
<path d="M1269.02 271.398C1278.52 271.398 1286.22 263.696 1286.22 254.196C1286.22 244.696 1278.52 236.994 1269.02 236.994C1259.52 236.994 1251.82 244.696 1251.82 254.196C1251.82 263.696 1259.52 271.398 1269.02 271.398Z" fill="#3472B9"/>
<path d="M1184.79 271.398C1194.29 271.398 1201.99 263.696 1201.99 254.196C1201.99 244.696 1194.29 236.994 1184.79 236.994C1175.29 236.994 1167.59 244.696 1167.59 254.196C1167.59 263.696 1175.29 271.398 1184.79 271.398Z" fill="#3472B9"/>
<path d="M993.208 96H961.302V117.99H993.208V96Z" fill="#3F3D56"/>
<path d="M700.281 96H668.375V117.99H700.281V96Z" fill="#3472B9"/>
<path d="M808.354 96H776.447V117.99H808.354V96Z" fill="#CCCCCC"/>
<path d="M737.545 255.352C737.279 255.352 737.025 255.247 736.838 255.059C736.65 254.872 736.545 254.617 736.545 254.352V204.99C736.546 203.664 737.074 202.393 738.011 201.456C738.948 200.519 740.219 199.991 741.545 199.99H790.219C790.485 199.99 790.739 200.095 790.927 200.283C791.114 200.47 791.219 200.725 791.219 200.99C791.219 201.255 791.114 201.509 790.927 201.697C790.739 201.884 790.485 201.99 790.219 201.99H741.545C740.749 201.991 739.987 202.307 739.424 202.869C738.862 203.432 738.546 204.194 738.545 204.99V254.352C738.545 254.617 738.439 254.872 738.252 255.059C738.064 255.247 737.81 255.352 737.545 255.352V255.352Z" fill="#3F3D56"/>
<path d="M792.507 217.818C802.007 217.818 809.709 210.116 809.709 200.616C809.709 191.116 802.007 183.414 792.507 183.414C783.007 183.414 775.305 191.116 775.305 200.616C775.305 210.116 783.007 217.818 792.507 217.818Z" fill="#E6E6E6"/>
<path d="M1122.54 254.352H1120.54V204.99C1120.55 203.664 1121.07 202.393 1122.01 201.456C1122.95 200.519 1124.22 199.991 1125.54 199.99H1174.22V201.99H1125.54C1124.75 201.991 1123.99 202.307 1123.42 202.869C1122.86 203.432 1122.55 204.194 1122.54 204.99V254.352Z" fill="#3F3D56"/>
<path d="M1176.51 217.818C1186.01 217.818 1193.71 210.116 1193.71 200.616C1193.71 191.116 1186.01 183.414 1176.51 183.414C1167.01 183.414 1159.31 191.116 1159.31 200.616C1159.31 210.116 1167.01 217.818 1176.51 217.818Z" fill="#E6E6E6"/>
<path d="M733.457 501.406C730.799 483.498 730.097 465.354 731.363 447.294L733.457 417.406C721.916 440.371 724.524 470.598 733.457 501.406V501.406Z" fill="#CACACA"/>
<path d="M742.457 506.406C741.178 495.72 740.84 484.942 741.45 474.197L742.457 456.406C736.904 470.076 738.159 488.068 742.457 506.406Z" fill="#CACACA"/>
<path d="M782.462 528.408V538.408C782.458 539.203 782.14 539.963 781.579 540.525C781.017 541.087 780.256 541.404 779.462 541.408H774.462C774.33 541.408 774.2 541.433 774.079 541.483C773.957 541.533 773.847 541.607 773.754 541.7C773.661 541.793 773.587 541.903 773.537 542.025C773.487 542.147 773.461 542.277 773.462 542.408V624.408C773.458 625.203 773.14 625.963 772.579 626.525C772.017 627.087 771.256 627.404 770.462 627.408H709.462C708.666 627.408 707.904 627.091 707.341 626.529C706.779 625.966 706.463 625.204 706.462 624.408V542.408C706.461 542.143 706.356 541.889 706.168 541.702C705.981 541.515 705.727 541.409 705.462 541.408H699.462C698.666 541.408 697.904 541.091 697.341 540.529C696.779 539.966 696.463 539.204 696.462 538.408V528.408C696.461 528.014 696.539 527.624 696.689 527.259C696.84 526.895 697.061 526.564 697.339 526.286C697.618 526.007 697.949 525.786 698.313 525.635C698.677 525.485 699.068 525.408 699.462 525.408H779.462C780.257 525.411 781.019 525.727 781.581 526.289C782.143 526.852 782.46 527.613 782.462 528.408V528.408Z" fill="#F2F2F2"/>
<path d="M773.552 543.508H706.552V546.508H773.552V543.508Z" fill="#E6E6E6"/>
<path d="M773.462 587.653C751.042 596.931 728.378 597.033 705.462 587.653V566.518C727.523 559.108 751.401 559.108 773.462 566.518V587.653Z" fill="#E6E6E6"/>
<path d="M451.481 251.381C471.582 251.381 487.877 235.086 487.877 214.985C487.877 194.885 471.582 178.59 451.481 178.59C431.38 178.59 415.085 194.885 415.085 214.985C415.085 235.086 431.38 251.381 451.481 251.381Z" fill="#636271"/>
<path d="M461.621 179.591C467.92 179.592 474.111 181.228 479.588 184.337C485.066 187.447 489.643 191.925 492.871 197.334C496.1 202.742 497.87 208.896 498.008 215.193C498.147 221.49 496.649 227.715 493.66 233.26C496.816 229.312 499.114 224.75 500.409 219.865C501.704 214.98 501.967 209.878 501.181 204.886C500.395 199.893 498.578 195.119 495.846 190.868C493.113 186.616 489.524 182.981 485.309 180.193C481.093 177.405 476.343 175.525 471.362 174.675C466.38 173.824 461.275 174.02 456.373 175.251C451.472 176.482 446.88 178.721 442.891 181.825C438.903 184.928 435.604 188.829 433.206 193.278C436.608 189.006 440.93 185.558 445.85 183.188C450.77 180.818 456.16 179.589 461.621 179.591V179.591Z" fill="#636271"/>
<path d="M383.471 214.908C442.517 214.908 490.383 167.042 490.383 107.996C490.383 48.9496 442.517 1.08325 383.471 1.08325C324.424 1.08325 276.558 48.9496 276.558 107.996C276.558 167.042 324.424 214.908 383.471 214.908Z" fill="#636271"/>
<path d="M299.562 41.6616C317.984 20.9437 343.734 8.19348 371.379 6.10197C399.024 4.01045 426.399 12.7413 447.729 30.4517C446.854 29.6207 445.989 28.7829 445.081 27.9753C423.887 9.15055 396.085 -0.48673 367.787 1.18244C339.489 2.85161 313.013 15.6906 294.179 36.8764C275.345 58.0622 265.696 85.8604 267.353 114.159C269.01 142.457 281.837 168.94 303.015 187.783C303.923 188.59 304.857 189.351 305.784 190.122C285.698 171.014 273.82 144.849 272.659 117.15C271.498 89.4505 281.144 62.3836 299.562 41.6616Z" fill="#636271"/>
<path d="M382.564 214.002C420.594 214.002 451.423 183.173 451.423 145.143C451.423 107.114 420.594 76.2844 382.564 76.2844C344.535 76.2844 313.706 107.114 313.706 145.143C313.706 183.173 344.535 214.002 382.564 214.002Z" fill="#FFB8B8"/>
<path d="M417.74 232.695L344.052 236.008C344.052 236.008 350.202 274.116 310.337 277.74C270.471 281.365 234.229 270.492 219.733 297.673C205.236 324.854 211.484 421.639 211.484 421.639C211.484 421.639 238.666 519.491 260.41 533.988C282.155 548.485 472.423 528.552 472.423 528.552L552.052 428.008L549.355 350.469C547.946 309.977 510.978 279.577 471.161 287.07C470.379 287.217 469.592 287.376 468.799 287.546C468.799 287.546 460.052 281.008 436.052 269.008C421.375 261.67 417.74 232.695 417.74 232.695Z" fill="#3472B9"/>
<path d="M257.786 275.928C257.786 275.928 275.3 307.706 268.052 353.008C260.804 398.31 291.216 494.122 291.216 494.122L312.961 488.686C312.961 488.686 298.464 394.458 302.088 372.713C305.713 350.968 306.713 286.801 288.592 275.928C270.471 265.056 257.786 275.928 257.786 275.928Z" fill="#2F2E41"/>
<path d="M467.525 292.59L475.141 493.216L489.638 502.277C489.638 502.277 510.477 282.109 499.604 282.109H477.482C476.173 282.109 474.876 282.367 473.666 282.868C472.457 283.369 471.358 284.104 470.432 285.03C469.506 285.955 468.772 287.055 468.27 288.264C467.769 289.474 467.511 290.77 467.511 292.08C467.511 292.25 467.516 292.42 467.525 292.59Z" fill="#2F2E41"/>
<path d="M301.182 489.592C306.186 489.592 310.243 485.536 310.243 480.532C310.243 475.528 306.186 471.471 301.182 471.471C296.178 471.471 292.122 475.528 292.122 480.532C292.122 485.536 296.178 489.592 301.182 489.592Z" fill="#6C63FF"/>
<path d="M482.39 498.652C487.394 498.652 491.45 494.596 491.45 489.592C491.45 484.588 487.394 480.532 482.39 480.532C477.386 480.532 473.329 484.588 473.329 489.592C473.329 494.596 477.386 498.652 482.39 498.652Z" fill="#6C63FF"/>
<path d="M323.672 59.069V127.928H339.619L359.914 106.183L357.196 127.928H427.685L423.336 106.183L432.034 127.928H443.269V59.069H323.672Z" fill="#636271"/>
<path d="M312.799 140.613C315.802 140.613 318.236 136.151 318.236 130.647C318.236 125.142 315.802 120.68 312.799 120.68C309.797 120.68 307.363 125.142 307.363 130.647C307.363 136.151 309.797 140.613 312.799 140.613Z" fill="#FFB8B8"/>
<path d="M452.33 140.613C455.332 140.613 457.766 136.151 457.766 130.647C457.766 125.142 455.332 120.68 452.33 120.68C449.327 120.68 446.893 125.142 446.893 130.647C446.893 136.151 449.327 140.613 452.33 140.613Z" fill="#FFB8B8"/>
<path d="M603.152 609.446V615.516C603.155 617.182 602.846 618.834 602.242 620.386C601.973 621.078 601.649 621.747 601.272 622.386C600.08 624.387 598.389 626.043 596.364 627.193C594.339 628.343 592.05 628.947 589.722 628.946H143.172C140.843 628.947 138.554 628.343 136.529 627.193C134.505 626.043 132.814 624.387 131.622 622.386C131.245 621.747 130.92 621.078 130.652 620.386C130.047 618.834 129.738 617.182 129.742 615.516V609.446C129.741 607.683 130.088 605.937 130.762 604.308C131.437 602.679 132.425 601.198 133.672 599.951C134.918 598.704 136.398 597.715 138.027 597.04C139.656 596.364 141.401 596.017 143.165 596.016H168.912V593.186C168.912 593.113 168.926 593.04 168.954 592.972C168.982 592.904 169.023 592.843 169.075 592.791C169.127 592.739 169.188 592.697 169.256 592.669C169.324 592.641 169.396 592.626 169.47 592.626H182.902C183.05 592.626 183.192 592.685 183.297 592.789C183.402 592.894 183.461 593.036 183.462 593.184V596.016H191.852V593.186C191.852 593.113 191.866 593.04 191.894 592.972C191.922 592.904 191.963 592.843 192.015 592.791C192.067 592.739 192.128 592.697 192.196 592.669C192.264 592.641 192.336 592.626 192.41 592.626H205.842C205.99 592.626 206.132 592.685 206.237 592.789C206.342 592.894 206.401 593.036 206.402 593.184V596.016H214.802V593.186C214.802 593.113 214.816 593.04 214.844 592.972C214.872 592.904 214.913 592.843 214.965 592.791C215.017 592.739 215.078 592.697 215.146 592.669C215.214 592.641 215.286 592.626 215.36 592.626H228.792C228.94 592.626 229.082 592.685 229.187 592.789C229.292 592.894 229.351 593.036 229.352 593.184V596.016H237.742V593.186C237.742 593.113 237.756 593.04 237.784 592.972C237.812 592.904 237.853 592.843 237.905 592.791C237.957 592.739 238.018 592.697 238.086 592.669C238.154 592.641 238.226 592.626 238.3 592.626H251.732C251.88 592.626 252.022 592.685 252.127 592.789C252.232 592.894 252.291 593.036 252.292 593.184V596.016H260.682V593.186C260.682 593.113 260.696 593.04 260.724 592.972C260.752 592.904 260.793 592.843 260.845 592.791C260.897 592.739 260.958 592.697 261.026 592.669C261.094 592.641 261.166 592.626 261.24 592.626H274.672C274.82 592.626 274.962 592.685 275.067 592.789C275.172 592.894 275.231 593.036 275.232 593.184V596.016H283.632V593.186C283.632 593.113 283.646 593.04 283.674 592.972C283.702 592.904 283.743 592.843 283.795 592.791C283.847 592.739 283.908 592.697 283.976 592.669C284.044 592.641 284.116 592.626 284.19 592.626H297.622C297.77 592.626 297.912 592.685 298.017 592.789C298.122 592.894 298.181 593.036 298.182 593.185V596.016H306.572V593.186C306.572 593.113 306.586 593.04 306.614 592.972C306.642 592.904 306.683 592.843 306.735 592.791C306.787 592.739 306.848 592.697 306.916 592.669C306.984 592.641 307.056 592.626 307.13 592.626H412.332C412.405 592.626 412.478 592.641 412.546 592.669C412.614 592.697 412.675 592.738 412.727 592.789C412.779 592.841 412.821 592.903 412.849 592.971C412.877 593.038 412.892 593.111 412.892 593.185V596.016H421.292V593.186C421.292 593.113 421.306 593.04 421.334 592.972C421.362 592.904 421.403 592.843 421.455 592.791C421.507 592.739 421.568 592.697 421.636 592.669C421.704 592.641 421.776 592.626 421.85 592.626H435.282C435.43 592.628 435.571 592.687 435.676 592.792C435.781 592.897 435.84 593.038 435.842 593.186V596.016H444.232V593.186C444.232 593.113 444.246 593.04 444.274 592.972C444.302 592.904 444.343 592.843 444.395 592.791C444.447 592.739 444.508 592.697 444.576 592.669C444.644 592.641 444.716 592.626 444.79 592.626H458.222C458.295 592.626 458.368 592.641 458.436 592.669C458.504 592.697 458.565 592.738 458.617 592.789C458.669 592.841 458.711 592.903 458.739 592.971C458.767 593.038 458.782 593.111 458.782 593.185V596.016H467.172V593.186C467.172 593.113 467.186 593.04 467.214 592.972C467.242 592.904 467.283 592.843 467.335 592.791C467.387 592.739 467.448 592.698 467.516 592.669C467.584 592.641 467.656 592.627 467.73 592.626H481.162C481.235 592.626 481.308 592.641 481.376 592.669C481.444 592.697 481.505 592.738 481.557 592.789C481.609 592.841 481.651 592.903 481.679 592.971C481.707 593.038 481.722 593.111 481.722 593.185V596.016H490.122V593.186C490.122 593.113 490.136 593.04 490.164 592.972C490.192 592.904 490.233 592.843 490.285 592.791C490.337 592.739 490.398 592.698 490.466 592.669C490.534 592.641 490.606 592.627 490.68 592.626H504.112C504.259 592.628 504.399 592.688 504.502 592.793C504.605 592.898 504.662 593.039 504.662 593.186V596.016H513.062V593.186C513.062 593.113 513.076 593.04 513.104 592.972C513.132 592.904 513.173 592.843 513.225 592.791C513.277 592.739 513.338 592.698 513.406 592.669C513.474 592.641 513.546 592.627 513.62 592.626H527.052C527.125 592.626 527.198 592.641 527.266 592.669C527.334 592.697 527.395 592.738 527.447 592.789C527.499 592.841 527.541 592.903 527.569 592.971C527.597 593.038 527.612 593.111 527.612 593.185V596.016H536.002V593.186C536.002 593.113 536.016 593.04 536.044 592.972C536.072 592.905 536.113 592.843 536.165 592.791C536.217 592.739 536.278 592.698 536.346 592.669C536.414 592.641 536.486 592.627 536.56 592.626H549.992C550.065 592.626 550.138 592.641 550.206 592.669C550.274 592.697 550.335 592.738 550.387 592.789C550.439 592.841 550.481 592.903 550.509 592.971C550.537 593.038 550.552 593.111 550.552 593.185V596.016H589.722C593.283 596.015 596.698 597.429 599.217 599.946C601.735 602.464 603.151 605.878 603.152 609.439L603.152 609.446Z" fill="#3F3D56"/>
<path d="M971.052 627.381H0V629.381H971.052V627.381Z" fill="#3F3D56"/>
<path d="M567.194 353.812H158.151C156.672 353.812 155.208 354.103 153.842 354.669C152.476 355.235 151.235 356.064 150.19 357.11C149.144 358.155 148.315 359.396 147.749 360.762C147.183 362.128 146.892 363.592 146.892 365.071V592.982C146.892 595.968 148.078 598.832 150.19 600.943C152.301 603.055 155.165 604.241 158.151 604.241H567.194C570.18 604.241 573.044 603.055 575.155 600.943C577.267 598.832 578.453 595.968 578.453 592.982V365.071C578.453 362.085 577.267 359.221 575.155 357.11C573.044 354.998 570.18 353.812 567.194 353.812Z" fill="#3F3D56"/>
<path d="M363 556C376.807 556 388 544.807 388 531C388 517.193 376.807 506 363 506C349.193 506 338 517.193 338 531C338 544.807 349.193 556 363 556Z" fill="#3472B9"/>
</svg>
