<svg width="152" height="155" viewBox="0 0 152 155" fill="none" xmlns="http://www.w3.org/2000/svg">
<path opacity="0.1" d="M128 78C132.971 78 137 73.9706 137 69C137 64.0294 132.971 60 128 60C123.029 60 119 64.0294 119 69C119 73.9706 123.029 78 128 78Z" fill="#3472B9"/>
<path opacity="0.1" d="M95.5 44C104.06 44 111 37.0604 111 28.5C111 19.9396 104.06 13 95.5 13C86.9396 13 80 19.9396 80 28.5C80 37.0604 86.9396 44 95.5 44Z" fill="#3472B9"/>
<path opacity="0.1" d="M115.5 118C124.06 118 131 111.284 131 103C131 94.7157 124.06 88 115.5 88C106.94 88 100 94.7157 100 103C100 111.284 106.94 118 115.5 118Z" fill="#3472B9"/>
<path opacity="0.1" d="M24 106C27.866 106 31 102.866 31 99C31 95.134 27.866 92 24 92C20.134 92 17 95.134 17 99C17 102.866 20.134 106 24 106Z" fill="#3472B9"/>
<path opacity="0.1" d="M53 85C59.0751 85 64 79.8513 64 73.5C64 67.1487 59.0751 62 53 62C46.9249 62 42 67.1487 42 73.5C42 79.8513 46.9249 85 53 85Z" fill="#3472B9"/>
<path opacity="0.1" d="M34.5 60C40.8513 60 46 55.0751 46 49C46 42.9249 40.8513 38 34.5 38C28.1487 38 23 42.9249 23 49C23 55.0751 28.1487 60 34.5 60Z" fill="#3472B9"/>
<path d="M76.0001 146.031C98.5996 146.031 116.92 142.507 116.92 138.161C116.92 133.814 98.5996 130.291 76.0001 130.291C53.4006 130.291 35.0801 133.814 35.0801 138.161C35.0801 142.507 53.4006 146.031 76.0001 146.031Z" fill="#3472B9"/>
<path d="M75.3201 141.061C77.9489 141.061 80.0801 138.267 80.0801 134.821C80.0801 131.375 77.9489 128.581 75.3201 128.581C72.6912 128.581 70.5601 131.375 70.5601 134.821C70.5601 138.267 72.6912 141.061 75.3201 141.061Z" fill="#3F3D56"/>
<path d="M75.3201 133.441C77.9489 133.441 80.0801 130.647 80.0801 127.201C80.0801 123.755 77.9489 120.961 75.3201 120.961C72.6912 120.961 70.5601 123.755 70.5601 127.201C70.5601 130.647 72.6912 133.441 75.3201 133.441Z" fill="#3F3D56"/>
<path d="M75.3201 125.821C77.9489 125.821 80.0801 123.027 80.0801 119.581C80.0801 116.135 77.9489 113.341 75.3201 113.341C72.6912 113.341 70.5601 116.135 70.5601 119.581C70.5601 123.027 72.6912 125.821 75.3201 125.821Z" fill="#3F3D56"/>
<path d="M75.3201 118.191C77.9489 118.191 80.0801 115.397 80.0801 111.951C80.0801 108.505 77.9489 105.711 75.3201 105.711C72.6912 105.711 70.5601 108.505 70.5601 111.951C70.5601 115.397 72.6912 118.191 75.3201 118.191Z" fill="#3F3D56"/>
<path d="M75.3201 110.571C77.9489 110.571 80.0801 107.777 80.0801 104.331C80.0801 100.885 77.9489 98.0908 75.3201 98.0908C72.6912 98.0908 70.5601 100.885 70.5601 104.331C70.5601 107.777 72.6912 110.571 75.3201 110.571Z" fill="#3F3D56"/>
<path d="M75.3201 102.951C77.9489 102.951 80.0801 100.157 80.0801 96.7108C80.0801 93.2646 77.9489 90.4708 75.3201 90.4708C72.6912 90.4708 70.5601 93.2646 70.5601 96.7108C70.5601 100.157 72.6912 102.951 75.3201 102.951Z" fill="#3F3D56"/>
<path d="M75.3201 95.3308C77.9489 95.3308 80.0801 92.5371 80.0801 89.0908C80.0801 85.6446 77.9489 82.8508 75.3201 82.8508C72.6912 82.8508 70.5601 85.6446 70.5601 89.0908C70.5601 92.5371 72.6912 95.3308 75.3201 95.3308Z" fill="#3F3D56"/>
<path d="M93.15 36.9308C93.8013 36.1005 94.3928 35.2249 94.92 34.3108L82.4099 32.2608L95.9399 32.3608C97.2385 29.5353 97.9474 26.4748 98.023 23.3661C98.0987 20.2575 97.5396 17.166 96.38 14.2808L78.2199 23.7008L94.9999 11.3708C93.429 8.66221 91.3174 6.30593 88.7966 4.44854C86.2759 2.59114 83.3998 1.27239 80.3474 0.57433C77.295 -0.123729 74.1316 -0.186172 71.0541 0.390919C67.9765 0.968011 65.0507 2.17227 62.4586 3.92876C59.8665 5.68526 57.6636 7.9564 55.987 10.6009C54.3104 13.2454 53.196 16.2066 52.713 19.3003C52.2301 22.394 52.389 25.554 53.1798 28.5837C53.9707 31.6133 55.3765 34.4478 57.3099 36.9108C56.2944 38.1986 55.4226 39.5936 54.71 41.0708L70.95 49.5108L53.63 43.6908C52.4085 47.2865 52.1053 51.1305 52.7481 54.8732C53.3908 58.6159 54.9589 62.1385 57.3099 65.1208C54.6619 68.4867 53.0145 72.5299 52.556 76.788C52.0976 81.0461 52.8467 85.3473 54.7177 89.1997C56.5886 93.0521 59.5059 96.3004 63.1359 98.5729C66.766 100.845 70.9622 102.051 75.2449 102.051C79.5277 102.051 83.724 100.845 87.354 98.5729C90.9841 96.3004 93.9013 93.0521 95.7723 89.1997C97.6432 85.3473 98.3922 81.0461 97.9338 76.788C97.4754 72.5299 95.8281 68.4867 93.18 65.1208C96.3421 61.0992 98.0611 56.1317 98.0611 51.0158C98.0611 45.8999 96.3421 40.9324 93.18 36.9108L93.15 36.9308Z" fill="#3472B9"/>
<path opacity="0.1" d="M52.39 51.0308C52.3828 56.1509 54.1061 61.1233 57.2801 65.1409C54.632 68.5068 52.9846 72.5499 52.5261 76.8081C52.0677 81.0662 52.8168 85.3674 54.6877 89.2198C56.5586 93.0722 59.4759 96.3204 63.106 98.593C66.736 100.866 70.9323 102.071 75.215 102.071C79.4978 102.071 83.694 100.866 87.3241 98.593C90.9541 96.3204 93.8714 93.0722 95.7423 89.2198C97.6133 85.3674 98.3624 81.0662 97.904 76.8081C97.4455 72.5499 95.7981 68.5068 93.15 65.1409C96.21 61.2609 52.39 48.4708 52.39 51.0308Z" fill="black"/>
<path d="M76 154C117.421 154 151 147.284 151 139C151 130.716 117.421 124 76 124C34.5786 124 1 130.716 1 139C1 147.284 34.5786 154 76 154Z" stroke="#444053" stroke-miterlimit="10"/>
</svg>
